<svg width="275" height="275" viewBox="0 0 275 275" fill="none" xmlns="http://www.w3.org/2000/svg">
<path d="M137.5 270.972C211.214 270.972 270.972 211.214 270.972 137.5C270.972 63.7856 211.214 4.02832 137.5 4.02832C63.7856 4.02832 4.02832 63.7856 4.02832 137.5C4.02832 211.214 63.7856 270.972 137.5 270.972Z" fill="#D5DCED"/>
<path d="M137.5 245.137C196.946 245.137 245.137 196.946 245.137 137.5C245.137 78.0539 196.946 29.8633 137.5 29.8633C78.0539 29.8633 29.8633 78.0539 29.8633 137.5C29.8633 196.946 78.0539 245.137 137.5 245.137Z" fill="#959CB5"/>
<path d="M137.5 227.917C187.436 227.917 227.917 187.436 227.917 137.5C227.917 87.5641 187.436 47.083 137.5 47.083C87.5641 47.083 47.083 87.5641 47.083 137.5C47.083 187.436 87.5641 227.917 137.5 227.917Z" fill="#464655"/>
<path d="M137.5 214.999C180.302 214.999 215 180.302 215 137.5C215 94.6982 180.302 60.0005 137.5 60.0005C94.6982 60.0005 60.0005 94.6982 60.0005 137.5C60.0005 180.302 94.6982 214.999 137.5 214.999Z" fill="#5B5D6E"/>
<path d="M167.637 150.417C184.282 150.417 197.774 136.925 197.774 120.28C197.774 103.636 184.282 90.1431 167.637 90.1431C150.993 90.1431 137.5 103.636 137.5 120.28C137.5 136.925 150.993 150.417 167.637 150.417Z" fill="#7F8499"/>
<path d="M120.28 115.973C125.035 115.973 128.89 112.118 128.89 107.363C128.89 102.608 125.035 98.7529 120.28 98.7529C115.525 98.7529 111.67 102.608 111.67 107.363C111.67 112.118 115.525 115.973 120.28 115.973Z" fill="#00C3FF"/>
<path d="M47.0836 137.5C47.0836 187.436 87.5644 227.916 137.5 227.916C187.436 227.916 227.916 187.436 227.916 137.5C227.916 136.049 227.767 134.636 227.699 133.203C212.853 133.289 212.764 141.806 197.764 141.806C182.688 141.806 182.688 133.195 167.611 133.195C152.546 133.195 152.546 141.806 137.48 141.806C122.409 141.806 122.409 133.195 107.338 133.195C92.2727 133.195 92.2727 141.806 77.2073 141.806C62.2225 141.806 62.1334 133.29 47.3011 133.203C47.2334 134.636 47.0836 136.049 47.0836 137.5Z" fill="#00AAF0"/>
<path d="M214.942 136.344C210.333 138.803 206.677 141.805 197.764 141.805C182.688 141.805 182.688 133.195 167.611 133.195C152.546 133.195 152.546 141.805 137.48 141.805C122.409 141.805 122.409 133.195 107.338 133.195C92.2727 133.195 92.2727 141.805 77.2073 141.805C68.3106 141.805 64.6567 138.808 60.0585 136.351C60.0526 136.737 60.0005 137.112 60.0005 137.5C60.0005 180.302 94.6983 214.999 137.5 214.999C180.302 214.999 215 180.302 215 137.5C215 137.11 214.947 136.733 214.942 136.344Z" fill="#00C3FF"/>
<path d="M237.288 97.1459L224.18 100.059C216.3 101.81 210.694 108.799 210.694 116.871V158.13C210.694 166.202 216.3 173.191 224.18 174.942L237.288 177.855C242.335 165.389 245.138 151.776 245.138 137.501C245.138 123.226 242.335 109.612 237.288 97.1459Z" fill="#C7CFE2"/>
<path d="M167.611 133.195C155.864 133.195 153.252 138.416 145.54 140.722C151.045 146.671 158.895 150.416 167.639 150.416C176.379 150.416 184.225 146.674 189.73 140.731C181.988 138.43 179.383 133.195 167.611 133.195Z" fill="#87DCFF"/>
<path d="M234.728 40.2725C208.757 14.3027 174.228 0 137.5 0C100.772 0 66.2433 14.3027 40.2725 40.2725C14.3027 66.2433 0 100.772 0 137.5C0 174.228 14.3027 208.757 40.2725 234.728C66.2433 260.697 100.772 275 137.5 275C174.228 275 208.757 260.697 234.728 234.728C260.697 208.757 275 174.228 275 137.5C275 100.772 260.697 66.2433 234.728 40.2725ZM229.03 229.03C204.582 253.479 172.076 266.943 137.5 266.943C102.924 266.943 70.4183 253.479 45.9696 229.03C21.5209 204.582 8.05664 172.076 8.05664 137.5C8.05664 102.924 21.5209 70.4183 45.9696 45.9696C70.4183 21.5209 102.924 8.05664 137.5 8.05664C172.076 8.05664 204.582 21.5209 229.03 45.9696C253.479 70.4183 266.943 102.924 266.943 137.5C266.943 172.076 253.479 204.582 229.03 229.03Z" fill="black"/>
<path d="M137.5 25.8333C75.9269 25.8333 25.8334 75.9269 25.8334 137.5C25.8334 199.073 75.9269 249.167 137.5 249.167C199.073 249.167 249.167 199.073 249.167 137.5C249.167 75.9269 199.073 25.8333 137.5 25.8333ZM235.215 171.948L222.15 169.77C217.846 169.053 214.722 165.366 214.722 161.003V113.998C214.722 109.635 217.846 105.948 222.15 105.231L235.215 103.054C239.028 113.836 241.11 125.429 241.11 137.501C241.11 149.573 239.028 161.165 235.215 171.948ZM137.5 241.11C80.3693 241.11 33.89 194.631 33.89 137.5C33.89 80.3693 80.3693 33.89 137.5 33.89C179.646 33.89 215.992 59.1878 232.16 95.3944L222.812 96.9525C217.45 85.7114 209.779 75.4461 200.478 67.1177C198.821 65.6337 196.274 65.7744 194.79 67.4314C193.306 69.0889 193.447 71.6353 195.104 73.1194C203.327 80.4821 210.156 89.498 215.033 99.3733C209.965 102.334 206.665 107.808 206.665 113.998V136.167C204.564 137.054 201.848 137.777 197.754 137.777C191.283 137.777 188.219 136.028 184.671 134.002C180.701 131.735 176.202 129.166 167.593 129.166C158.988 129.166 154.491 131.736 150.524 134.002C146.979 136.028 143.917 137.777 137.452 137.777C130.994 137.777 127.936 136.028 124.395 134.003C120.43 131.736 115.937 129.166 107.338 129.166C98.7347 129.166 94.2396 131.736 90.2731 134.002C88.3416 135.106 87.6708 137.567 88.7745 139.499C89.8783 141.43 92.3388 142.101 94.2708 140.997C97.8141 138.972 100.875 137.223 107.337 137.223C113.795 137.223 116.853 138.972 120.395 140.997C124.359 143.264 128.853 145.834 137.452 145.834C146.057 145.834 150.553 143.264 154.52 140.998C158.065 138.972 161.127 137.223 167.593 137.223C174.064 137.223 177.128 138.972 180.676 140.998C184.646 143.265 189.145 145.834 197.754 145.834C201.357 145.834 204.252 145.372 206.665 144.687V161.002C206.665 167.194 209.966 172.669 215.037 175.629C200.548 205.055 170.482 223.888 137.499 223.888C89.8649 223.888 51.1114 185.135 51.1114 137.5C51.1114 137.499 51.1114 137.499 51.1114 137.498C54.9984 138.064 57.4342 139.448 60.145 140.998C64.1105 143.265 68.605 145.834 77.2063 145.834C79.431 145.834 81.2346 144.031 81.2346 141.806C81.2346 139.581 79.431 137.778 77.2063 137.778C70.7459 137.778 67.6866 136.029 64.1443 134.003C60.919 132.16 57.3429 130.116 51.4927 129.417C55.5828 85.5583 92.5912 51.1119 137.5 51.1119C153.53 51.1119 169.178 55.5328 182.752 63.8978C184.646 65.0649 187.128 64.4757 188.295 62.5813C189.462 60.6869 188.873 58.2055 186.979 57.0383C172.133 47.8908 155.023 43.0552 137.5 43.0552C85.423 43.0552 43.0553 85.423 43.0553 137.5C43.0553 189.577 85.423 231.945 137.5 231.945C173.981 231.945 207.199 210.87 222.817 178.049L232.16 179.606C215.992 215.812 179.646 241.11 137.5 241.11Z" fill="black"/>
<path d="M120.278 94.7219C113.309 94.7219 107.639 100.392 107.639 107.361C107.639 114.33 113.309 120 120.278 120C127.247 120 132.917 114.33 132.917 107.361C132.917 100.392 127.247 94.7219 120.278 94.7219ZM120.278 111.944C117.751 111.944 115.696 109.888 115.696 107.361C115.696 104.835 117.752 102.779 120.278 102.779C122.805 102.779 124.861 104.835 124.861 107.361C124.861 109.888 122.805 111.944 120.278 111.944Z" fill="black"/>
<path d="M150.416 73.194C145.821 73.194 142.083 76.9323 142.083 81.5278C142.083 86.1233 145.821 89.8616 150.416 89.8616C155.012 89.8616 158.75 86.1233 158.75 81.5278C158.75 76.9323 155.012 73.194 150.416 73.194Z" fill="black"/>
<path d="M169.792 99.0274C166.383 99.0274 163.611 101.8 163.611 105.208C163.611 108.617 166.384 111.39 169.792 111.39C173.2 111.39 175.973 108.616 175.973 105.208C175.973 101.8 173.2 99.0274 169.792 99.0274Z" fill="black"/>
</svg>
