<svg width="375" height="674" viewBox="0 0 375 674" fill="none" xmlns="http://www.w3.org/2000/svg">
<path fill-rule="evenodd" clip-rule="evenodd" d="M548 0L518.444 97.8666C488.889 187.578 350.361 419.826 262.38 459.213C188.958 492.083 116.594 459.213 107.669 362.83C99.4944 274.559 205.851 97.8666 107.669 97.8666C46.6936 97.8666 -95.8889 432.244 -125.444 505.644L-155 570.889V734H-125.444C-95.8889 734 -38.8889 734 20.2222 734C79.3333 734 138.444 734 195.444 734C254.556 734 313.667 734 372.778 734C429.778 734 488.889 734 518.444 734H548V0Z" fill="#3D90AB"/>
</svg>
