<svg width="160" height="160" viewBox="0 0 160 160" fill="none" xmlns="http://www.w3.org/2000/svg">
<circle cx="80" cy="80" r="80" fill="white"/>
<circle cx="80" cy="80" r="80" stroke="black"/>
<path d="M150 80C150 118.66 118.66 150 80 150C41.3401 150 10 118.66 10 80C10 41.3401 12.8401 107 51.5 107C90.1599 107 150 41.3401 150 80Z" fill="#3D90AB"/>
<path d="M104 85.5C104 89.6421 100.642 93 96.5 93C92.3579 93 89 89.6421 89 85.5C89 81.3579 92.3579 78 96.5 78C100.642 78 104 81.3579 104 85.5Z" fill="#3D90AB"/>
<circle cx="73.5" cy="45.5" r="3.5" fill="#3D90AB"/>
<circle cx="39" cy="75" r="5" fill="#3D90AB"/>
</svg>
