<svg width="256" height="55" viewBox="0 0 256 55" fill="none" xmlns="http://www.w3.org/2000/svg">
<path d="M0.491781 44V5.192H24.1798V9.84H5.92378V21.376H22.1638V25.912H5.92378V39.352H25.5798V44H0.491781ZM42.004 40.248C43.236 40.248 44.3186 40.2293 45.252 40.192C46.2226 40.1173 47.0253 40.0053 47.66 39.856V31.176C47.2866 30.9893 46.6706 30.84 45.812 30.728C44.9906 30.5787 43.9826 30.504 42.788 30.504C42.004 30.504 41.164 30.56 40.268 30.672C39.4093 30.784 38.6066 31.0267 37.86 31.4C37.1506 31.736 36.5533 32.2213 36.068 32.856C35.5826 33.4533 35.34 34.256 35.34 35.264C35.34 37.1307 35.9373 38.4373 37.132 39.184C38.3266 39.8933 39.9506 40.248 42.004 40.248ZM41.556 14.152C43.6466 14.152 45.4013 14.432 46.82 14.992C48.276 15.5147 49.4333 16.28 50.292 17.288C51.188 18.2587 51.8226 19.4347 52.196 20.816C52.5693 22.16 52.756 23.6533 52.756 25.296V43.496C52.308 43.5707 51.6733 43.6827 50.852 43.832C50.068 43.944 49.172 44.056 48.164 44.168C47.156 44.28 46.0546 44.3733 44.86 44.448C43.7026 44.56 42.5453 44.616 41.388 44.616C39.7453 44.616 38.2333 44.448 36.852 44.112C35.4706 43.776 34.276 43.2533 33.268 42.544C32.26 41.7973 31.476 40.8267 30.916 39.632C30.356 38.4373 30.076 37 30.076 35.32C30.076 33.7147 30.3933 32.3333 31.028 31.176C31.7 30.0187 32.596 29.0853 33.716 28.376C34.836 27.6667 36.1426 27.144 37.636 26.808C39.1293 26.472 40.6973 26.304 42.34 26.304C42.8626 26.304 43.404 26.3413 43.964 26.416C44.524 26.4533 45.0466 26.528 45.532 26.64C46.0546 26.7147 46.5026 26.7893 46.876 26.864C47.2493 26.9387 47.5106 26.9947 47.66 27.032V25.576C47.66 24.7173 47.5666 23.8773 47.38 23.056C47.1933 22.1973 46.8573 21.4507 46.372 20.816C45.8866 20.144 45.2146 19.6213 44.356 19.248C43.5346 18.8373 42.452 18.632 41.108 18.632C39.3906 18.632 37.8786 18.7627 36.572 19.024C35.3026 19.248 34.3506 19.4907 33.716 19.752L33.1 15.44C33.772 15.1413 34.892 14.8613 36.46 14.6C38.028 14.3013 39.7266 14.152 41.556 14.152ZM68.1818 40.248C70.3098 40.248 71.8778 39.968 72.8858 39.408C73.9311 38.848 74.4538 37.952 74.4538 36.72C74.4538 35.4507 73.9498 34.4427 72.9418 33.696C71.9338 32.9493 70.2724 32.1093 67.9578 31.176C66.8378 30.728 65.7551 30.28 64.7098 29.832C63.7018 29.3467 62.8244 28.7867 62.0778 28.152C61.3311 27.5173 60.7338 26.752 60.2858 25.856C59.8378 24.96 59.6138 23.8587 59.6138 22.552C59.6138 19.976 60.5658 17.9413 62.4698 16.448C64.3738 14.9173 66.9684 14.152 70.2538 14.152C71.0751 14.152 71.8964 14.208 72.7178 14.32C73.5391 14.3947 74.3044 14.5067 75.0138 14.656C75.7231 14.768 76.3391 14.8987 76.8618 15.048C77.4218 15.1973 77.8511 15.328 78.1498 15.44L77.1978 19.92C76.6378 19.6213 75.7604 19.3227 74.5658 19.024C73.3711 18.688 71.9338 18.52 70.2538 18.52C68.7978 18.52 67.5284 18.8187 66.4458 19.416C65.3631 19.976 64.8218 20.872 64.8218 22.104C64.8218 22.7387 64.9338 23.2987 65.1578 23.784C65.4191 24.2693 65.7924 24.7173 66.2778 25.128C66.8004 25.5013 67.4351 25.856 68.1818 26.192C68.9284 26.528 69.8244 26.8827 70.8698 27.256C72.2511 27.7787 73.4831 28.3013 74.5658 28.824C75.6484 29.3093 76.5631 29.888 77.3098 30.56C78.0938 31.232 78.6911 32.0533 79.1018 33.024C79.5124 33.9573 79.7178 35.1147 79.7178 36.496C79.7178 39.184 78.7098 41.2187 76.6938 42.6C74.7151 43.9813 71.8778 44.672 68.1818 44.672C65.6058 44.672 63.5898 44.448 62.1338 44C60.6778 43.5893 59.6884 43.272 59.1658 43.048L60.1178 38.568C60.7151 38.792 61.6671 39.128 62.9738 39.576C64.2804 40.024 66.0164 40.248 68.1818 40.248ZM82.982 49.432C83.3926 49.6187 83.9153 49.7867 84.55 49.936C85.222 50.1227 85.8753 50.216 86.51 50.216C88.5633 50.216 90.1686 49.7493 91.326 48.816C92.4833 47.92 93.5286 46.4453 94.462 44.392C92.11 39.912 89.9073 35.1707 87.854 30.168C85.838 25.128 84.158 20.032 82.814 14.88H88.414C88.8246 16.56 89.31 18.3707 89.87 20.312C90.4673 22.2533 91.1206 24.2507 91.83 26.304C92.5393 28.3573 93.3046 30.4107 94.126 32.464C94.9473 34.5173 95.806 36.496 96.702 38.4C98.1206 34.48 99.3526 30.5973 100.398 26.752C101.443 22.9067 102.433 18.9493 103.366 14.88H108.742C107.398 20.368 105.905 25.6507 104.262 30.728C102.619 35.768 100.846 40.4907 98.942 44.896C98.1953 46.576 97.4113 48.0133 96.59 49.208C95.806 50.44 94.9286 51.448 93.958 52.232C92.9873 53.016 91.886 53.5947 90.654 53.968C89.4593 54.3413 88.0966 54.528 86.566 54.528C86.1553 54.528 85.726 54.4907 85.278 54.416C84.83 54.3787 84.382 54.304 83.934 54.192C83.5233 54.1173 83.1313 54.024 82.758 53.912C82.422 53.8 82.1793 53.7067 82.03 53.632L82.982 49.432ZM148.755 17.68C147.187 22.6827 145.6 27.312 143.995 31.568C142.39 35.824 140.784 39.968 139.179 44H133.747C131.768 38.288 130.014 32.2587 128.483 25.912C126.99 19.5653 125.59 12.6587 124.283 5.192H129.995C130.518 8.104 131.059 11.016 131.619 13.928C132.179 16.84 132.758 19.6773 133.355 22.44C133.952 25.1653 134.55 27.7787 135.147 30.28C135.744 32.7813 136.36 35.096 136.995 37.224C138.488 33.304 140.075 29.0107 141.755 24.344C143.435 19.64 145.003 14.7867 146.459 9.784H151.163C152.619 14.7867 154.206 19.64 155.923 24.344C157.64 29.0107 159.246 33.304 160.739 37.224C161.336 35.1333 161.934 32.8373 162.531 30.336C163.128 27.8347 163.707 25.2213 164.267 22.496C164.864 19.7333 165.443 16.896 166.003 13.984C166.563 11.0347 167.104 8.104 167.627 5.192H173.171C171.827 12.6587 170.39 19.5653 168.859 25.912C167.366 32.2587 165.648 38.288 163.707 44H158.275C156.632 39.968 155.027 35.824 153.459 31.568C151.891 27.312 150.323 22.6827 148.755 17.68ZM187.418 40.248C188.65 40.248 189.733 40.2293 190.666 40.192C191.637 40.1173 192.439 40.0053 193.074 39.856V31.176C192.701 30.9893 192.085 30.84 191.226 30.728C190.405 30.5787 189.397 30.504 188.202 30.504C187.418 30.504 186.578 30.56 185.682 30.672C184.823 30.784 184.021 31.0267 183.274 31.4C182.565 31.736 181.967 32.2213 181.482 32.856C180.997 33.4533 180.754 34.256 180.754 35.264C180.754 37.1307 181.351 38.4373 182.546 39.184C183.741 39.8933 185.365 40.248 187.418 40.248ZM186.97 14.152C189.061 14.152 190.815 14.432 192.234 14.992C193.69 15.5147 194.847 16.28 195.706 17.288C196.602 18.2587 197.237 19.4347 197.61 20.816C197.983 22.16 198.17 23.6533 198.17 25.296V43.496C197.722 43.5707 197.087 43.6827 196.266 43.832C195.482 43.944 194.586 44.056 193.578 44.168C192.57 44.28 191.469 44.3733 190.274 44.448C189.117 44.56 187.959 44.616 186.802 44.616C185.159 44.616 183.647 44.448 182.266 44.112C180.885 43.776 179.69 43.2533 178.682 42.544C177.674 41.7973 176.89 40.8267 176.33 39.632C175.77 38.4373 175.49 37 175.49 35.32C175.49 33.7147 175.807 32.3333 176.442 31.176C177.114 30.0187 178.01 29.0853 179.13 28.376C180.25 27.6667 181.557 27.144 183.05 26.808C184.543 26.472 186.111 26.304 187.754 26.304C188.277 26.304 188.818 26.3413 189.378 26.416C189.938 26.4533 190.461 26.528 190.946 26.64C191.469 26.7147 191.917 26.7893 192.29 26.864C192.663 26.9387 192.925 26.9947 193.074 27.032V25.576C193.074 24.7173 192.981 23.8773 192.794 23.056C192.607 22.1973 192.271 21.4507 191.786 20.816C191.301 20.144 190.629 19.6213 189.77 19.248C188.949 18.8373 187.866 18.632 186.522 18.632C184.805 18.632 183.293 18.7627 181.986 19.024C180.717 19.248 179.765 19.4907 179.13 19.752L178.514 15.44C179.186 15.1413 180.306 14.8613 181.874 14.6C183.442 14.3013 185.141 14.152 186.97 14.152ZM213.596 40.248C215.724 40.248 217.292 39.968 218.3 39.408C219.345 38.848 219.868 37.952 219.868 36.72C219.868 35.4507 219.364 34.4427 218.356 33.696C217.348 32.9493 215.687 32.1093 213.372 31.176C212.252 30.728 211.169 30.28 210.124 29.832C209.116 29.3467 208.239 28.7867 207.492 28.152C206.745 27.5173 206.148 26.752 205.7 25.856C205.252 24.96 205.028 23.8587 205.028 22.552C205.028 19.976 205.98 17.9413 207.884 16.448C209.788 14.9173 212.383 14.152 215.668 14.152C216.489 14.152 217.311 14.208 218.132 14.32C218.953 14.3947 219.719 14.5067 220.428 14.656C221.137 14.768 221.753 14.8987 222.276 15.048C222.836 15.1973 223.265 15.328 223.564 15.44L222.612 19.92C222.052 19.6213 221.175 19.3227 219.98 19.024C218.785 18.688 217.348 18.52 215.668 18.52C214.212 18.52 212.943 18.8187 211.86 19.416C210.777 19.976 210.236 20.872 210.236 22.104C210.236 22.7387 210.348 23.2987 210.572 23.784C210.833 24.2693 211.207 24.7173 211.692 25.128C212.215 25.5013 212.849 25.856 213.596 26.192C214.343 26.528 215.239 26.8827 216.284 27.256C217.665 27.7787 218.897 28.3013 219.98 28.824C221.063 29.3093 221.977 29.888 222.724 30.56C223.508 31.232 224.105 32.0533 224.516 33.024C224.927 33.9573 225.132 35.1147 225.132 36.496C225.132 39.184 224.124 41.2187 222.108 42.6C220.129 43.9813 217.292 44.672 213.596 44.672C211.02 44.672 209.004 44.448 207.548 44C206.092 43.5893 205.103 43.272 204.58 43.048L205.532 38.568C206.129 38.792 207.081 39.128 208.388 39.576C209.695 40.024 211.431 40.248 213.596 40.248ZM231.812 44V1.44L237.02 0.543999V15.44C237.991 15.0667 239.017 14.7867 240.1 14.6C241.22 14.376 242.321 14.264 243.404 14.264C245.719 14.264 247.641 14.6 249.172 15.272C250.703 15.9067 251.916 16.8213 252.812 18.016C253.745 19.1733 254.399 20.5733 254.772 22.216C255.145 23.8587 255.332 25.6693 255.332 27.648V44H250.124V28.768C250.124 26.976 249.993 25.4453 249.732 24.176C249.508 22.9067 249.116 21.88 248.556 21.096C247.996 20.312 247.249 19.752 246.316 19.416C245.383 19.0427 244.225 18.856 242.844 18.856C242.284 18.856 241.705 18.8933 241.108 18.968C240.511 19.0427 239.932 19.136 239.372 19.248C238.849 19.3227 238.364 19.416 237.916 19.528C237.505 19.64 237.207 19.7333 237.02 19.808V44H231.812Z" fill="#333333"/>
</svg>

