<svg width="42" height="49" viewBox="0 0 42 49" fill="none" xmlns="http://www.w3.org/2000/svg">
<path d="M31.9688 0.510376C34.7188 0.510376 37.0781 1.58225 39.0469 3.726C41.0156 5.86975 42 8.43885 42 11.4333C42 12.9305 41.1719 15.2274 39.5156 18.3239C37.8594 21.4204 36.2344 24.568 34.6406 27.7666C33.0469 30.9652 32.3438 33.5173 32.5312 35.4229C32.5312 35.7631 32.3594 35.9333 32.0156 35.9333C31.6719 35.9333 31.5 35.7631 31.5 35.4229C31.625 33.5173 30.9062 30.9652 29.3438 27.7666C27.7812 24.568 26.1719 21.4204 24.5156 18.3239C22.8594 15.2274 22.0312 12.9305 22.0312 11.4333C22.0312 8.43885 23 5.86975 24.9375 3.726C26.875 1.58225 29.2188 0.510376 31.9688 0.510376ZM32.0156 7.04371C30.9219 7.04371 29.9844 7.46906 29.2031 8.31975C28.4219 9.17044 28.0312 10.2083 28.0312 11.4333C28.0312 12.6583 28.4219 13.6961 29.2031 14.5468C29.9844 15.3975 30.9219 15.8229 32.0156 15.8229C33.1094 15.8229 34.0469 15.3975 34.8281 14.5468C35.6094 13.6961 36 12.6583 36 11.4333C36 10.2083 35.6094 9.17044 34.8281 8.31975C34.0469 7.46906 33.1094 7.04371 32.0156 7.04371ZM4.03125 4.89996H21.375C20.125 7.07774 19.5 9.42565 19.5 11.9437C19.5 13.7132 20.5 16.5375 22.5 20.4166L0.09375 44.8145L0 44.1V9.28954C0 8.06454 0.390625 7.02669 1.17188 6.176C1.95312 5.32531 2.90625 4.89996 4.03125 4.89996ZM29.0625 32.9729L24.2812 27.7666L25.5938 26.2354C27.0938 28.8895 28.25 31.1354 29.0625 32.9729ZM34.7812 48.4895H5.25L19.9688 32.3604L34.7812 48.4895ZM40.0312 23.1729V44.1L39.9375 44.8145L33.1875 37.4645C33.375 36.852 33.5938 36.2225 33.8438 35.576C34.0938 34.9295 34.375 34.2489 34.6875 33.5343C35 32.8197 35.2969 32.1732 35.5781 31.5947C35.8594 31.0163 36.2344 30.2847 36.7031 29.4C37.1719 28.5152 37.5156 27.8517 37.7344 27.4093C37.9531 26.967 38.3438 26.2354 38.9062 25.2145L40.0312 23.1729ZM9.375 25.6229C8.3125 25.6229 7.46875 25.3847 6.84375 24.9083C6.21875 24.4319 5.90625 23.7854 5.90625 22.9687C5.90625 22.0159 6.46875 21.3013 7.59375 20.825C8.21875 20.6208 8.90625 20.5187 9.65625 20.5187H10.125C10.9375 21.1993 11.5 21.7097 11.8125 22.05C12.125 22.3902 12.2812 22.7986 12.2812 23.275C12.2812 23.8875 12 24.4319 11.4375 24.9083C10.875 25.3847 10.1875 25.6229 9.375 25.6229ZM7.03125 13.1687C7.03125 12.4882 7.20312 11.9607 7.54688 11.5864C7.89062 11.2121 8.28125 11.025 8.71875 11.025C9.53125 11.025 10.1719 11.4333 10.6406 12.25C11.1094 13.0666 11.3438 13.9173 11.3438 14.802C11.3438 15.5507 11.1406 16.0781 10.7344 16.3843C10.3281 16.6906 9.90625 16.8437 9.46875 16.8437C8.78125 16.8437 8.20312 16.4524 7.73438 15.6697C7.26562 14.8871 7.03125 14.0534 7.03125 13.1687ZM11.9062 19.4979L11.25 18.8854C10.875 18.5451 10.6875 18.2388 10.6875 17.9666C10.6875 17.4902 10.9062 17.0819 11.3438 16.7416C12.4062 15.8569 12.9375 14.8701 12.9375 13.7812C12.9375 12.8284 12.5 11.9437 11.625 11.127H12.75L13.5938 10.2083H9.5625C8.25 10.2083 7.23438 10.5996 6.51562 11.3822C5.79688 12.1649 5.4375 13.1007 5.4375 14.1895C5.4375 15.0743 5.71875 15.8569 6.28125 16.5375C6.84375 17.218 7.625 17.5583 8.625 17.5583H9.09375L8.90625 18.375C8.90625 18.8513 9.09375 19.3277 9.46875 19.8041C7.96875 19.8722 6.71875 20.2465 5.71875 20.927C4.71875 21.5395 4.21875 22.3902 4.21875 23.4791C4.21875 24.3638 4.57812 25.0954 5.29688 25.6739C6.01562 26.2524 7.0625 26.5416 8.4375 26.5416C10 26.5416 11.2344 26.1333 12.1406 25.3166C13.0469 24.5 13.5 23.5812 13.5 22.5604C13.5 21.4715 12.9688 20.4507 11.9062 19.4979Z" fill="#3D90AB"/>
</svg>
