<svg width="375" height="124" viewBox="0 0 375 124" fill="none" xmlns="http://www.w3.org/2000/svg">
<path fill-rule="evenodd" clip-rule="evenodd" d="M0 124L15.7658 107.467C31.5315 92.3111 63.0631 59.2444 93.4685 45.4667C125 31.6889 156.532 37.2 188.063 48.2222C218.468 59.2444 250 78.5333 281.532 75.7778C313.063 73.0222 343.468 50.9778 359.234 38.5778L375 27.5556V0H359.234C343.468 0 313.063 0 281.532 0C250 0 218.468 0 188.063 0C156.532 0 125 0 93.4685 0C63.0631 0 31.5315 0 15.7658 0H0V124Z" fill="#3D90AB"/>
</svg>
